<svg width="276" height="41" viewBox="0 0 276 41" fill="none" xmlns="http://www.w3.org/2000/svg">
<path fill-rule="evenodd" clip-rule="evenodd" d="M147.428 0.202045C143.61 0.726287 139.311 2.99444 136.389 6.026C132.492 10.0698 130.498 15.2494 130.485 21.3646C130.477 25.2197 131.023 27.8851 132.437 30.8807C134.457 35.1613 137.727 38.0862 142.544 39.9198C145.532 41.0574 151.093 41.349 154.408 40.5421C160.167 39.1406 164.832 34.8462 167.001 28.9494L167.635 27.2255H162.016H156.397L155.587 28.1339C153.406 30.5805 148.922 31.4098 146.007 29.9061C143.082 28.3969 141.765 25.3311 141.983 20.5433C142.142 17.0768 142.964 14.858 144.803 12.9357C147.867 9.73365 153.486 9.63392 156.571 12.7269L157.951 14.1109H163.462C169.612 14.1109 169.288 14.2796 168.478 11.499C167.426 7.88794 164.091 4.01462 160.473 2.20203C156.809 0.366326 151.81 -0.400195 147.428 0.202045ZM10.8084 1.08245C10.7322 1.3199 10.4436 2.98926 10.1667 4.79253C9.88942 6.5958 9.39803 9.73607 9.07433 11.7706L8.4854 15.4703L4.8165 15.5669L1.14728 15.6639L0.570368 19.2877C-0.340258 25.0078 -0.642575 24.4645 3.45123 24.4645C7.52466 24.4645 7.25976 24.0756 6.4714 28.9018C6.20315 30.5425 5.74517 33.4377 5.45354 35.3359C5.16158 37.2341 4.85191 39.1364 4.76539 39.5637L4.60772 40.3402L18.8948 40.3361C29.7578 40.333 33.5821 40.2215 34.8521 39.8705C40.705 38.2526 43.8538 34.2381 43.8221 28.4335C43.8054 25.3936 42.6108 22.5598 40.6646 20.9439L39.3491 19.852L40.3603 19.413C42.3065 18.5674 43.6931 17.1531 44.7494 14.9364C45.6944 12.953 45.7826 12.5022 45.6363 10.4025C45.2712 5.1694 42.1311 1.92628 36.5224 0.989618C33.3833 0.465721 10.9801 0.546479 10.8084 1.08245ZM54.2609 1.25502C54.1627 1.58737 53.7671 3.9556 53.382 6.51814C52.9965 9.08068 52.4754 12.4974 52.2235 14.1109C51.9716 15.7243 51.4588 19.0634 51.084 21.531C50.7092 23.9986 50.0164 28.5025 49.5444 31.5396C49.0724 34.5766 48.5967 37.7991 48.4871 38.7009L48.288 40.3402H65.6992H83.1099L83.2863 39.5637C83.3832 39.1364 83.7336 37.0011 84.065 34.8182L84.6673 30.8493L72.7162 30.7589C63.4019 30.6881 60.7946 30.5739 60.8988 30.2412C60.972 30.0062 61.2055 28.6882 61.4179 27.3118L61.8038 24.8097H68.1006C72.2863 24.8097 74.4734 24.6833 74.623 24.4335C74.8071 24.1256 76.0905 16.2993 76.1039 15.4051C76.1059 15.2629 73.232 15.1462 69.7175 15.1462H63.3274L63.5562 13.3343C63.6821 12.338 63.8679 11.1732 63.9694 10.7459L64.1542 9.96937H74.9367H85.7196L86.0917 7.81235C86.5133 5.37061 87.1249 1.29988 87.1286 0.909893C87.1303 0.767703 79.7754 0.651051 70.7851 0.651051C55.5082 0.651051 54.4276 0.690395 54.2609 1.25502ZM91.3189 1.08245C91.1853 1.51144 89.8037 10.0567 89.8037 10.4525C89.8037 10.5664 92.8973 10.6596 96.6781 10.6596H103.553L103.359 11.6087C103.252 12.1305 102.64 16.0522 101.999 20.3231C101.357 24.594 100.683 28.9425 100.502 29.9865C100.32 31.0305 99.9398 33.5154 99.6559 35.5085C99.3723 37.5016 99.0586 39.4039 98.959 39.7362C98.7917 40.295 99.2002 40.3402 104.412 40.3402H110.047L110.816 35.2496C111.238 32.4497 111.864 28.3731 112.206 26.1902C113.031 20.9094 114.161 13.5611 114.395 11.9538L114.582 10.6596H121.379C127.56 10.6596 128.191 10.6051 128.355 10.0557C128.454 9.7233 128.768 7.89863 129.053 6.00046C129.337 4.10228 129.654 2.12231 129.757 1.60014L129.943 0.651051H110.698C95.5961 0.651051 91.4242 0.743889 91.3189 1.08245ZM176.516 1.42758C176.431 1.85449 176.048 4.30073 175.664 6.86327C175.281 9.4258 173.995 17.8123 172.808 25.4999C171.619 33.1875 170.647 39.6717 170.646 39.9088C170.645 40.2367 171.967 40.3402 176.15 40.3402C181.591 40.3402 181.657 40.3312 181.809 39.5637C182.233 37.4156 187.681 1.80376 187.681 1.18082C187.681 0.725944 186.903 0.651051 182.175 0.651051C176.734 0.651051 176.668 0.660024 176.516 1.42758ZM192.878 1.08245C192.808 1.3199 192.509 3.22222 192.214 5.31021C191.918 7.39821 191.587 9.45583 191.477 9.88309L191.278 10.6596H198.164C201.953 10.6596 205.052 10.7956 205.052 10.9616C205.052 11.1276 204.759 13.1076 204.4 15.3619C202.987 24.2564 201.062 36.811 200.848 38.5283L200.623 40.3402H206.136H211.649L211.818 39.3911C211.91 38.8693 212.942 32.1939 214.109 24.5577L216.232 10.6731L223.085 10.5802L229.938 10.4871L230.665 6.17302C231.065 3.8003 231.403 1.58737 231.417 1.25502C231.44 0.686599 230.313 0.651051 212.223 0.651051C197.139 0.651051 192.977 0.743889 192.878 1.08245ZM232.489 1.42758C233.049 2.50954 241.475 16.7034 243.869 20.5981C245.051 22.5212 245.772 24.0421 245.668 24.3945C245.502 24.9567 244.437 31.8153 243.783 36.5438C243.612 37.7777 243.393 39.1364 243.296 39.5637L243.121 40.3402H249.14C252.451 40.3402 255.159 40.208 255.159 40.0465C255.159 39.885 255.696 36.1998 256.351 31.8571C257.536 24.0035 257.549 23.9534 258.773 22.4059C259.985 20.8735 266.652 12.681 272.641 5.36474C274.325 3.30712 275.824 1.40445 275.971 1.13698C276.197 0.726287 275.208 0.651051 269.569 0.651051H262.9L260.131 4.016C258.608 5.86655 256.752 8.07982 256.007 8.934C255.261 9.78818 254.189 11.0734 253.625 11.7899L252.599 13.0924L248.993 6.87189L245.388 0.651051H238.737H232.086L232.489 1.42758ZM31.7872 9.94694C34.1573 10.5154 34.7619 12.7041 33.0406 14.4825L32.0641 15.4913H25.7302H19.3962L19.8565 12.9892C20.1094 11.6129 20.388 10.2931 20.4752 10.0557C20.6649 9.53969 29.7261 9.45307 31.7872 9.94694ZM30.0127 24.8428C31.4632 25.1641 31.8002 25.395 32.2539 26.3776C32.938 27.8595 32.5388 29.4623 31.2347 30.469C30.3665 31.1396 29.7886 31.2031 23.6073 31.307C17.2609 31.4139 16.9282 31.3874 17.0989 30.7893C17.1978 30.4428 17.4544 28.8776 17.6692 27.3118L18.0593 24.4645H23.1823C25.9997 24.4645 29.0737 24.6347 30.0127 24.8428Z" fill="white"/>
</svg>
