<svg width="322" height="61" viewBox="0 0 322 61" fill="none" xmlns="http://www.w3.org/2000/svg">
<path fill-rule="evenodd" clip-rule="evenodd" d="M29.5256 8.0535V16.107L27.9428 14.603C25.233 12.0281 22.5107 11.0558 18.0791 11.08C14.9434 11.0971 12.9281 11.5735 10.1628 12.9517C3.88347 16.0811 0 22.7868 0 30.5C0 38.2132 3.88347 44.9189 10.1628 48.0483C12.9281 49.4265 14.9434 49.9029 18.0791 49.92C22.5107 49.9442 25.233 48.9719 27.9428 46.397L29.5256 44.893V46.9535V49.014H34.2326H38.9395V24.507V0H34.2326H29.5256V8.0535ZM170.521 5.99298V11.986H167.419H164.316V15.4105V18.8351H167.41H170.504L170.566 30.4465C170.627 41.9751 170.631 42.0665 171.117 43.2678C172.068 45.6199 173.932 47.4818 176.265 48.4096C177.374 48.8507 177.895 48.8972 182.556 48.9693L187.637 49.0481V44.9643V40.8807L184.802 40.8798C181.573 40.879 180.924 40.6543 180.29 39.3174C179.967 38.6361 179.936 37.5666 179.986 28.7509L180.042 18.9421L183.519 18.8832L186.995 18.8244V15.4052V11.986H183.465H179.935V5.99298V0H175.228H170.521V5.99298ZM59.3721 11.1457C51.1274 12.2409 44.3549 18.5128 42.7008 26.5849C42.268 28.6974 42.268 32.3026 42.7008 34.4151C44.2306 41.8798 50.0255 47.7333 57.7167 49.5821C60.0249 50.1369 64.0095 50.0403 66.5969 49.3668C68.9412 48.7565 71.6366 47.491 73.3527 46.1948C75.8857 44.2815 78.3187 41.2893 79.4835 38.6543L80.0133 37.4561H74.9879C71.9829 37.4561 69.9628 37.5373 69.9628 37.658C69.9628 37.7691 69.4373 38.4276 68.795 39.1216C66.749 41.3325 64.2316 42.3111 61.1081 42.1097C56.6286 41.821 53.6895 39.1997 52.1105 34.0851L51.9618 33.6035H66.2043H80.4465L80.4457 31.4097C80.4416 21.0165 74.851 13.2274 66.1153 11.4434C64.1602 11.044 61.14 10.9107 59.3721 11.1457ZM102.484 11.1131C99.3521 11.5549 96.9149 12.6948 94.8648 14.6762L93.4977 15.9976V13.9919V11.986H88.7907H84.0837V36.493V61H88.7907H93.4977V53.0011V45.0024L94.8648 46.3238C97.4543 48.8263 100.473 49.9445 104.623 49.9387C111.952 49.9284 117.961 46.0616 121.081 39.3491C122.47 36.3601 122.907 34.2409 122.907 30.5C122.907 27.8327 122.823 26.9635 122.409 25.3632C120.888 19.4821 117.031 14.7357 111.946 12.4857C109.429 11.3723 105.098 10.7441 102.484 11.1131ZM142.921 11.1262C140.811 11.3916 138.934 11.9344 137 12.838C134.764 13.8832 133.543 14.7218 131.718 16.4676C127.783 20.2321 125.737 25.0312 125.737 30.5C125.737 35.9688 127.783 40.7679 131.718 44.5324C133.545 46.2806 134.76 47.1147 137.027 48.1769C142.107 50.5587 148.228 50.5587 153.308 48.1769C158.403 45.7887 162.051 41.6234 163.74 36.2659C166.284 28.194 163.141 19.2009 156.075 14.3374C152.541 11.9053 147.164 10.5926 142.921 11.1262ZM312.96 11.9907C310.381 12.6422 308.169 14.71 307.424 17.165C306.525 20.124 307.341 23.4981 309.407 25.3647C312.04 27.7452 316.262 28.0752 318.971 26.1123C320.608 24.9261 322 22.1254 322 20.0191V19.0491H317.935H313.87V20.3333V21.6175H316.33C317.684 21.6175 318.791 21.6813 318.791 21.7592C318.791 21.8371 318.546 22.3189 318.247 22.8298C317.538 24.0396 316.429 24.614 314.802 24.614C311.841 24.614 309.774 22.1764 310.114 19.0868C310.559 15.0473 314.637 13.2154 317.762 15.6511C318.462 16.1965 318.724 16.2667 320.062 16.2667C320.893 16.2667 321.572 16.1849 321.572 16.0847C321.572 15.757 320.38 14.2487 319.534 13.5069C319.078 13.1073 318.283 12.5936 317.768 12.3652C316.686 11.8864 314.153 11.6891 312.96 11.9907ZM205.181 19.7071V27.2139L209.514 27.1448C213.565 27.0799 213.913 27.0425 214.877 26.568C216.15 25.9411 216.917 24.8392 217.088 23.3932C217.239 22.1195 216.926 21.0302 216.177 20.2216L215.638 19.6403L216.07 19.1812C217.964 17.1641 217.262 13.7862 214.702 12.6045C213.961 12.2621 213.268 12.2088 209.514 12.2047L205.181 12.2V19.7071ZM219.944 19.6912V27.1825H221.442H222.94V24.293V21.4035H224.087H225.234L227.433 24.293L229.632 27.1825H231.42C232.404 27.1825 233.208 27.1101 233.207 27.0219C233.205 26.9337 232.251 25.6161 231.086 24.0944L228.968 21.3273L229.974 20.8609C232.399 19.737 233.262 17.0034 231.972 14.5328C231.49 13.6092 231.159 13.2783 230.236 12.7959L229.095 12.2H224.52H219.944V19.6912ZM240.096 12.5654C239.724 13.2873 233.851 26.9149 233.851 27.0581C233.851 27.1369 234.538 27.1728 235.378 27.1384L236.904 27.0754L237.61 25.4702L238.316 23.8649L241.662 23.8058L245.008 23.7468L245.788 25.4646L246.568 27.1825H248.14C249.55 27.1825 249.7 27.1431 249.592 26.8021C249.525 26.5928 248.089 23.2459 246.4 19.3644L243.328 12.307L241.811 12.2443C240.53 12.1914 240.264 12.2413 240.096 12.5654ZM251.395 19.6912V27.1825H252.889H254.383L254.44 22.0216L254.498 16.861L258.135 22.0182L261.772 27.1754L263.43 27.1788L265.088 27.1825V19.6912V12.2H263.591H262.093V17.2425C262.093 20.291 262.015 22.2363 261.894 22.1621C261.785 22.0946 260.132 19.8254 258.221 17.1196L254.747 12.2H253.071H251.395V19.6912ZM268.512 19.6985V27.231L272.202 27.1347C276.756 27.0159 277.768 26.7056 279.649 24.8518C281.322 23.2031 281.85 21.7828 281.733 19.2458C281.591 16.1712 280.26 14.1546 277.523 12.871C276.385 12.3372 276.112 12.3032 272.416 12.2366L268.512 12.166V19.6985ZM284.344 19.6912V27.1825H285.842H287.34V19.6912V12.2H285.842H284.344V19.6912ZM290.763 19.6912V27.1825H292.257H293.75L293.808 21.9942L293.865 16.8058L297.507 21.9407L301.15 27.0754L302.803 27.1379L304.456 27.2004V19.7002V12.2H302.958H301.46V17.3645V22.5289L297.808 17.3645L294.155 12.2H292.459H290.763V19.6912ZM213.674 15.5032C214.089 15.9859 214.178 16.2684 214.076 16.7831C213.843 17.9601 213.289 18.1829 210.584 18.1883L208.177 18.193V16.6235C208.177 15.76 208.249 14.9803 208.337 14.8906C208.426 14.8007 209.543 14.7626 210.82 14.8057C213.073 14.8814 213.158 14.902 213.674 15.5032ZM228.657 15.1963C229.715 15.8859 229.773 17.4073 228.77 18.1964C228.298 18.568 227.9 18.6211 225.585 18.6211H222.94V16.6727V14.7243L225.56 14.8057C227.367 14.8615 228.329 14.9831 228.657 15.1963ZM276.018 15.3489C277.862 16.1652 278.91 17.9496 278.737 19.9827C278.49 22.8917 276.62 24.3711 273.165 24.3906L271.507 24.4V19.554V14.7081L273.29 14.8194C274.373 14.887 275.443 15.0946 276.018 15.3489ZM242.855 18.7908L243.854 21.0825L241.82 21.1441C240.702 21.1779 239.744 21.1625 239.691 21.1096C239.638 21.057 240.06 19.9549 240.628 18.6606C241.196 17.3664 241.705 16.3506 241.759 16.4032C241.813 16.4561 242.306 17.5305 242.855 18.7908ZM21.9302 19.126C25.2138 20.0035 27.6377 22.4371 28.8367 26.0601C29.3108 27.493 29.3857 28.0945 29.3895 30.5C29.3934 32.9879 29.3313 33.4637 28.8033 34.9947C28.0857 37.0758 27.2727 38.3874 25.91 39.6626C22.2432 43.0936 16.2705 43.0125 12.7377 39.4835C7.58208 34.3334 8.59023 23.5569 14.5546 20.0602C16.5039 18.9175 19.6557 18.5183 21.9302 19.126ZM64.293 19.126C67.3913 19.9541 69.7752 22.2305 71.0007 25.5318C71.2536 26.2131 71.4605 26.815 71.4605 26.8695C71.4605 26.9239 67.1174 26.9684 61.8095 26.9684H52.1582L52.2952 26.3798C52.3703 26.056 52.7808 25.0736 53.2072 24.1962C54.4484 21.6424 56.5286 19.8577 59.0563 19.1782C60.5392 18.7797 62.9081 18.7559 64.293 19.126ZM106.046 19.1337C109.299 20.0001 111.71 22.4178 112.9 26.0053C113.397 27.5052 113.468 28.0626 113.468 30.5C113.469 32.9135 113.396 33.5023 112.92 34.9399C111.414 39.4938 107.946 42.1656 103.553 42.1572C99.6944 42.1497 96.6015 40.2249 94.9042 36.7744C91.9191 30.7063 93.9142 22.4195 98.9631 19.9145C101.133 18.8379 103.822 18.5414 106.046 19.1337ZM147.743 19.1651C151.173 20.0532 153.782 22.8985 154.791 26.8528C155.28 28.7702 155.223 32.479 154.673 34.4633C153.336 39.2891 149.787 42.1649 145.167 42.1649C139.251 42.1649 135.157 37.3939 135.157 30.5C135.157 28.0303 135.554 26.2221 136.544 24.186C137.317 22.5985 139.164 20.6216 140.524 19.9275C142.628 18.8535 145.406 18.5601 147.743 19.1651ZM213.091 21.2492C213.94 21.6788 214.298 22.4974 213.977 23.2727C213.596 24.1932 212.942 24.4 210.413 24.4H208.177V22.6877V20.9754L210.37 20.9786C211.693 20.9806 212.772 21.0878 213.091 21.2492ZM225.706 33.8824C223.488 34.5119 221.828 35.9412 220.822 38.0884C220.338 39.1196 220.265 39.5571 220.265 41.4203C220.265 43.4089 220.316 43.6683 220.963 44.9823C222.206 47.5094 224.468 48.998 227.346 49.1827C229.688 49.3329 231.055 48.8278 232.702 47.2037C234.196 45.7301 234.86 44.2753 235.071 42.0136L235.198 40.657L231.155 40.7153L227.112 40.7737L227.048 42.1114L226.984 43.4491H229.435C232.244 43.4491 232.312 43.5262 230.938 45.1325C230.048 46.1721 229.074 46.5229 227.409 46.4024C222.738 46.0644 221.537 39.0469 225.787 36.9281C227.164 36.2419 228.647 36.2105 229.947 36.8401C230.463 37.0899 230.998 37.4752 231.136 37.6963C231.346 38.0336 231.655 38.0982 233.051 38.0982H234.716L234.302 37.286C233.757 36.2186 232.139 34.7439 230.92 34.2045C229.695 33.6624 227.055 33.4993 225.706 33.8824ZM272.636 34.0369C271.653 34.3578 270.975 34.7766 270.047 35.636C264.994 40.3167 267.836 48.7465 274.615 49.1816C277.367 49.3584 279.871 48.2217 281.281 46.1547C281.671 45.5826 281.991 45.0289 281.991 44.924C281.991 44.8192 281.284 44.7333 280.419 44.7333C279.083 44.7333 278.787 44.8018 278.44 45.1916C277.365 46.4002 274.784 46.8165 273.243 46.0302C271.557 45.1693 270.571 43.4669 270.571 41.4158C270.571 37.0993 275.074 34.8289 278.277 37.5306C278.867 38.0283 279.137 38.0982 280.47 38.0982C281.306 38.0982 281.99 38.0259 281.99 37.9377C281.988 37.6083 281.147 36.4121 280.37 35.6351C278.538 33.8028 275.363 33.1465 272.636 34.0369ZM209.991 34.0391C209.546 34.7591 203.545 48.8034 203.641 48.8995C203.881 49.1399 206.416 49.0095 206.618 48.7465C206.731 48.5994 207.102 47.8266 207.443 47.0291L208.062 45.5794L211.45 45.6378L214.837 45.6965L215.53 47.3018L216.222 48.907L217.762 48.9699C218.912 49.0168 219.302 48.9627 219.301 48.7559C219.301 48.6035 217.875 45.2042 216.133 41.2018L212.965 33.9246L211.552 33.8616C210.673 33.8227 210.083 33.8897 209.991 34.0391ZM237.702 41.4158V49.0215L242.998 48.9642L248.293 48.907L248.357 47.5693L248.42 46.2316H244.559H240.698V44.5193V42.807H244.442H248.186V41.4158V40.0246H244.442H240.698V38.3123V36.6H244.559H248.42L248.357 35.2623L248.293 33.9246L242.998 33.8674L237.702 33.8101V41.4158ZM251.279 34.0866C251.222 34.2345 251.201 37.6295 251.232 41.6313L251.288 48.907H252.786H254.284L254.391 43.8817L254.498 38.8564L258.051 43.8817L261.604 48.907L263.239 48.9695L264.874 49.032V41.4248V33.8175H263.381H261.887L261.829 38.9784L261.772 44.139L258.135 38.9818L254.498 33.8246L252.94 33.8212C251.884 33.8186 251.349 33.9042 251.279 34.0866ZM282.847 33.946C282.847 34.0267 284.146 36.234 285.735 38.8512L288.623 43.6099V46.3121V49.014H290.121H291.619L291.619 46.3921L291.62 43.7702L294.507 38.9544C296.095 36.3057 297.394 34.0663 297.395 33.9781C297.395 33.8899 296.687 33.8175 295.822 33.8175H294.249L292.252 37.1379C291.153 38.964 290.176 40.379 290.079 40.282C289.982 40.1851 289.055 38.7151 288.018 37.0152L286.134 33.9246L284.49 33.8621C283.586 33.8276 282.847 33.8655 282.847 33.946ZM212.241 39.8105C212.62 40.6934 213.066 41.7289 213.231 42.1114L213.531 42.807H211.401H209.271L210.027 41.1482C210.443 40.236 210.92 39.1616 211.087 38.7609C211.255 38.3604 211.428 38.0715 211.472 38.1188C211.516 38.1663 211.862 38.9276 212.241 39.8105Z" fill="white"/>
</svg>
