<svg width="192" height="77" viewBox="0 0 192 77" fill="none" xmlns="http://www.w3.org/2000/svg">
<path fill-rule="evenodd" clip-rule="evenodd" d="M179.162 0.112952C178.962 0.191003 176.262 2.83245 173.161 5.9832C168.513 10.707 167.524 11.8314 167.524 12.3946C167.524 12.9086 167.899 13.4491 169.039 14.5791C169.873 15.405 170.81 16.1578 171.122 16.2523C171.621 16.4035 172.386 15.7138 177.517 10.4893C182.114 5.80795 183.345 4.42047 183.345 3.91952C183.345 3.45612 182.886 2.83098 181.646 1.60843C179.935 -0.0792293 179.825 -0.145498 179.162 0.112952ZM179.89 24.0532C179.823 24.1211 179.005 24.2407 178.071 24.3187C175.428 24.5391 174.326 24.7225 172.494 25.2453C167.804 26.5846 165.052 28.1989 161.684 31.5865C157.356 35.9389 155.578 39.6346 154.535 46.4436C154.096 49.3114 154.102 51.4394 154.559 54.554C155.335 59.845 156.841 63.5338 159.68 67.0976C163.909 72.406 169.213 75.4176 175.889 76.3024C180.328 76.8908 191.097 76.7825 191.73 76.1434C191.819 76.0531 191.931 74.9918 191.977 73.7849C192.043 72.0946 191.975 71.4554 191.682 71.0028L191.302 70.4155L184.686 70.2918C177.831 70.1639 175.567 70.0037 175.174 69.6181C175.047 69.4941 174.708 69.3925 174.419 69.3925C172.917 69.3925 168.587 66.997 166.464 64.9907C165.18 63.777 163.264 61.0256 162.608 59.4521C162.04 58.0886 161.22 54.9374 161.22 54.1186C161.22 53.4554 161.253 53.4385 162.614 53.4324C163.381 53.4287 169.899 53.3585 177.099 53.276C188.74 53.1427 190.224 53.0824 190.5 52.7302C190.892 52.2297 190.773 47.9126 190.356 47.4902C190.146 47.2781 186.327 47.2003 175.707 47.1917L161.341 47.18L161.389 46.1106C161.455 44.6499 162.331 41.8158 163.217 40.1934C165.265 36.4433 167.931 34.0468 171.888 32.3972C175.821 30.7584 178.394 30.3672 185.245 30.3672C188.633 30.3672 191.018 30.267 191.302 30.1131C191.719 29.8871 191.771 29.579 191.771 27.3205C191.771 25.328 191.69 24.7141 191.395 24.4667C191.123 24.238 189.506 24.1207 185.515 24.0401C182.488 23.9793 179.957 23.9849 179.89 24.0532ZM77.3241 24.6962C74.2398 25.3415 72.0845 26.0668 69.9449 27.1791C60.9524 31.8545 55.5367 41.01 55.7045 51.2531C55.8561 60.4972 60.417 68.4056 68.4739 73.3944C70.3465 74.5539 73.4113 75.8432 75.2631 76.2502C76.0632 76.4261 77.0998 76.6664 77.5666 76.7842C78.9647 77.1372 84.543 77.038 86.4956 76.6257C93.0579 75.2399 98.4371 71.777 102.497 66.3245C103.771 64.6135 105.603 61.0752 106.183 59.2066C106.351 58.6667 106.575 58.004 106.68 57.734C107.072 56.7343 107.202 55.4254 107.313 51.3699C107.412 47.7295 107.363 46.9392 106.91 44.9884C104.909 36.3699 99.4752 29.7482 91.63 26.3674C87.2347 24.4734 81.5586 23.8102 77.3241 24.6962ZM9.07711 24.9046C7.03938 25.7582 6.31002 27.1163 5.81368 30.9808C5.65777 32.1957 5.43227 33.9077 5.31249 34.7851C5.19271 35.6626 4.97424 37.3193 4.82706 38.4668C4.67964 39.6142 4.46238 41.2157 4.34454 42.0257C4.22645 42.8356 4.00944 44.4924 3.86202 45.7073C3.71459 46.9222 3.49443 48.579 3.37247 49.3889C3.25075 50.1989 3.033 51.8004 2.88922 52.9479C2.74519 54.0953 2.52163 55.8348 2.39239 56.8136C2.2634 57.7924 2.04493 59.4491 1.90721 60.4952C1.65067 62.4438 1.10996 66.3075 0.6963 69.1471C0.568517 70.0245 0.415516 71.2394 0.356596 71.8469C0.297432 72.4544 0.172559 73.5844 0.0789648 74.358C-0.164962 76.3721 0.00816322 76.5103 2.77768 76.5103C4.01962 76.5103 5.28848 76.4129 5.59715 76.2941C6.29668 76.0246 6.58644 74.9896 7.11721 70.8652C7.33446 69.1777 7.56069 67.4658 7.6201 67.0608C7.79225 65.8851 8.91684 57.677 9.20053 55.525C9.34286 54.4451 9.55818 52.8435 9.67917 51.9661C10.1355 48.6548 10.8709 42.922 11.1277 40.6757C11.5719 36.7904 11.9485 34.3892 12.0321 34.9078C12.0758 35.1778 12.2166 35.7853 12.3454 36.2578C14.6673 44.7817 15.9599 49.3605 17.0932 53.0762C17.5472 54.5643 17.9184 55.9661 17.9184 56.1911C17.9184 56.4164 18.0275 56.6688 18.1609 56.7522C18.2942 56.8357 18.4033 57.1682 18.4033 57.4915C18.4033 57.8147 18.5064 58.3329 18.6322 58.6429C18.7583 58.9529 19.0968 60.035 19.3849 61.0475C19.6729 62.0599 19.9932 63.1644 20.0965 63.5019C20.1998 63.8394 20.532 64.9439 20.8341 65.9563C22.0845 70.1433 23.5219 74.3598 23.8958 74.9373C24.574 75.9851 25.4394 76.2649 28.0009 76.2649C31.8727 76.2649 32.2965 75.7492 34.1563 68.7789C34.2644 68.3739 34.7477 66.7172 35.2307 65.0973C35.7134 63.4773 36.3288 61.3788 36.598 60.4338C37.2056 58.301 38.2698 54.7489 38.5467 53.9296C38.6609 53.5921 39.6296 50.1682 40.6996 46.3209C41.7696 42.4736 42.7451 38.9945 42.8678 38.5895C42.9903 38.1845 43.2296 37.2457 43.3996 36.5032C43.8365 34.5971 44.0411 34.5129 44.2135 36.1684C44.296 36.96 44.4691 38.4638 44.5981 39.5099C45.2176 44.5314 45.3354 45.4786 45.5743 47.364C45.7154 48.4776 45.9351 50.1069 46.0624 50.9843C46.6528 55.0513 47.316 59.7672 47.7706 63.1337C48.0439 65.1586 48.3135 67.0363 48.3693 67.3062C48.5123 67.9967 48.8666 70.2702 49.0579 71.7242C49.376 74.1445 49.7526 75.773 50.0525 76.0251C50.2368 76.1797 51.4491 76.2538 53.1115 76.2119L55.8653 76.1422L55.9477 75.2831C55.9931 74.8106 55.9075 73.5957 55.7571 72.5833C55.4053 70.2108 55.1056 68.0406 54.7916 65.5881C54.306 61.7963 54.0118 59.6774 53.6675 57.4885C53.4765 56.2736 52.8274 51.5795 52.2253 47.0572C51.623 42.535 51.0209 38.0618 50.8871 37.1168C50.7535 36.1719 50.5367 34.5981 50.4055 33.6193C49.5979 27.5895 49.4209 26.9494 48.2252 25.7393C47.0895 24.5897 45.4734 24.2625 42.7771 24.6366C41.9098 24.7568 41.3965 25.0158 40.7084 25.6797C39.9266 26.4342 39.6638 26.9913 38.9034 29.5081C37.4534 34.3055 37.2679 34.8872 37.0443 35.3339C36.9272 35.5683 36.8317 35.8997 36.8324 36.0703C36.8332 36.2408 36.4978 37.485 36.0876 38.8349C35.677 40.1849 35.2253 41.7311 35.0837 42.2711C34.6589 43.8893 34.4402 44.6519 33.9574 46.1982C33.3723 48.0729 31.4495 54.5611 31.0119 56.1386C30.8807 56.6111 30.5655 57.7156 30.3116 58.593C30.0575 59.4705 29.6104 61.1272 29.318 62.2747C29.0258 63.4221 28.6871 64.6147 28.5656 64.9247C28.4441 65.2347 28.343 65.7317 28.3411 66.0292C28.3389 66.3267 28.2407 66.7245 28.1223 66.9135C27.8801 67.3008 27.9407 67.4871 25.5332 58.9612C24.6564 55.8563 23.8454 52.9847 23.7309 52.5797C23.1655 50.5808 22.9664 49.8288 22.8539 49.2662C22.7865 48.9287 22.6415 48.4317 22.5317 48.1617C22.2373 47.4389 21.9085 46.408 21.3564 44.4801C21.086 43.5351 20.5177 41.6023 20.0936 40.1849C19.6695 38.7674 19.1249 36.945 18.8837 36.1351C16.6827 28.7499 15.884 26.5407 15.1443 25.7919C13.8565 24.4883 11.0501 24.0777 9.07711 24.9046ZM113.438 25.2001C111.785 25.7079 111.006 26.4703 110.431 28.1405C110.105 29.0894 110.058 32.1466 110.058 52.2351C110.058 64.8894 110.124 75.4176 110.205 75.6311C110.328 75.9551 110.829 76.0194 113.227 76.0194C115.819 76.0194 116.127 75.9728 116.353 75.5462C116.522 75.2254 116.558 68.4002 116.462 54.3768C116.324 34.2218 116.332 33.7005 116.766 34.44C117.801 36.2075 119.029 38.1666 120.908 41.0547C122.009 42.7448 122.909 44.1718 122.909 44.2261C122.909 44.2803 123.673 45.4913 124.606 46.9173C125.54 48.3434 126.303 49.6118 126.303 49.736C126.303 49.8602 126.394 49.9984 126.504 50.0435C126.615 50.0885 127.294 51.0641 128.015 52.2115C128.735 53.359 129.405 54.4082 129.502 54.5432C129.6 54.6782 132.476 59.041 135.892 64.2382C139.308 69.4354 142.504 74.0566 142.993 74.5075C144.454 75.8543 145.104 76.0936 146.939 75.9605C149.639 75.7652 150.983 74.5902 151.524 71.9534C151.719 71.0001 151.775 64.1498 151.72 48.0289C151.652 28.2753 151.596 25.4112 151.278 25.2077C150.733 24.8587 145.86 24.9046 145.507 25.262C145.286 25.4863 145.215 30.4739 145.211 46.1859L145.206 66.8154L144.121 65.0973C141.82 61.4542 137.416 54.6348 133.638 48.8659C131.471 45.5566 129.698 42.7465 129.698 42.6214C129.698 42.4962 129.596 42.3938 129.472 42.3938C129.348 42.3938 129.177 42.1737 129.092 41.9044C129.008 41.6352 128.787 41.2614 128.602 41.0738C128.416 40.8861 128.069 40.3964 127.83 39.9858C127.436 39.3094 123.162 32.7958 122.727 32.208C122.627 32.073 122.007 31.1342 121.35 30.1217C119.52 27.3018 118.404 26.052 117.213 25.4851C116.11 24.9606 114.592 24.8459 113.438 25.2001ZM85.4923 31.0782C86.5342 31.3342 87.7123 31.6727 88.1105 31.8302C94.8231 34.4889 99.4773 40.3019 100.603 47.433C102.017 56.3929 97.653 64.978 89.7038 68.8758C88.8488 69.2951 87.957 69.6379 87.7218 69.6379C87.4866 69.6379 87.2342 69.7361 87.1607 69.8564C87.0875 69.9764 86.6173 70.1571 86.1159 70.2577C84.8919 70.5039 78.4133 70.5134 77.2227 70.2712C75.8074 69.9828 72.7307 68.6098 71.2409 67.6015C68.9777 66.0697 66.3282 63.3124 65.2975 61.4156C63.1538 57.4716 62.5367 55.4202 62.3546 51.632C62.0799 45.9204 64.1719 40.4934 68.2389 36.3672C72.8345 31.7048 79.6009 29.6306 85.4923 31.0782Z" fill="white"/>
</svg>
