<svg width="176" height="79" viewBox="0 0 176 79" fill="none" xmlns="http://www.w3.org/2000/svg">
<path fill-rule="evenodd" clip-rule="evenodd" d="M115.396 0.189246C102.832 1.79611 92.4878 10.4016 89.1197 22.0499C88.8023 23.148 88.4543 24.6715 88.3464 25.4355C87.9556 28.2056 87.9621 28.1921 87.712 26.7685C87.2228 23.9845 85.8446 20.8189 84.131 18.5436C82.8842 16.8881 80.2251 14.4605 78.4757 13.3806C76.7085 12.2898 74.7167 11.4566 72.309 10.8011L70.6101 10.3388L58.1482 10.2836L45.6864 10.2284L45.8083 11.5816C46.0826 14.6269 46.9338 17.4019 48.3469 19.8577C51.5355 25.3994 56.9752 29.0016 63.7132 30.0337C64.4361 30.1443 75.3197 30.208 93.6928 30.2087C125.25 30.2102 124.366 30.2361 128.517 29.189C139.599 26.3935 148.263 17.8547 150.999 7.03165C151.388 5.49059 151.889 1.96904 151.889 0.772439V0L134.21 0.0220497C124.487 0.0342031 116.021 0.109381 115.396 0.189246ZM141.063 8.61629C141.063 8.90693 139.522 11.4468 138.624 12.6363C135.887 16.262 132.131 18.9408 127.732 20.4032C124.219 21.5715 124.266 21.5682 110.9 21.6483C103.662 21.6917 98.8089 21.6571 98.8089 21.5622C98.8089 21.3141 100.052 19.1283 100.895 17.8956C101.995 16.2865 104.577 13.7919 106.455 12.5245C109.227 10.6544 112.762 9.26494 115.746 8.87255C116.562 8.76526 117.426 8.6498 117.666 8.61612C118.458 8.50483 141.063 8.505 141.063 8.61629ZM26.6476 23.2746C26.2842 23.3633 25.7628 23.551 25.4889 23.692C24.7576 24.0679 23.6459 25.4002 23.41 26.1833C23.2761 26.6276 23.2047 28.3907 23.2047 31.2488C23.2047 35.3442 23.1846 35.6267 22.8991 35.5388C22.731 35.4871 22.0244 35.2411 21.3289 34.9921C15.4754 32.897 8.65255 34.5336 4.24044 39.0909C2.4771 40.9122 1.23862 43.0295 0.46809 45.5399C0.0979261 46.7464 0.0818627 47.1121 0.01883 55.8192C-0.0286627 62.357 0.0114966 65.1799 0.164276 66.0531C1.21453 72.0564 5.58508 76.7408 11.7864 78.51C12.9573 78.8441 13.5855 78.9038 15.9586 78.9069C18.3405 78.9102 18.9693 78.8517 20.2247 78.5107C25.2818 77.1365 29.2904 73.6419 31.0688 69.0565C32.1473 66.2757 32.1201 66.9142 32.0689 45.5752C32.0252 27.3647 32.0027 26.0944 31.7138 25.5686C30.7512 23.8172 28.5358 22.814 26.6476 23.2746ZM147.611 23.2034C146.51 23.4696 145.989 23.7319 145.286 24.3733C143.744 25.7812 143.865 23.9576 143.861 45.7773C143.858 61.7193 143.9 65.3009 144.105 66.3628C145.03 71.1719 148.43 75.4368 153.003 77.5251C155.453 78.6441 156.727 78.9017 159.834 78.9064C163.117 78.9114 164.579 78.6022 167.167 77.3551C171.187 75.4178 173.902 72.2942 175.397 67.8858L175.897 66.41V56.6873C175.897 47.0388 175.894 46.9539 175.493 45.5755C175.271 44.8116 174.681 43.4053 174.184 42.4503C173.41 40.9664 173.012 40.4487 171.445 38.8869C169.944 37.3907 169.311 36.8988 167.953 36.1705C165.172 34.6796 162.986 34.1339 159.834 34.1434C157.61 34.1502 155.587 34.523 153.926 35.232C153.462 35.4301 153.01 35.5923 152.922 35.5923C152.829 35.5923 152.762 33.759 152.762 31.2285C152.762 28.3594 152.691 26.6288 152.554 26.1758C152.286 25.2844 151.027 23.8977 150.181 23.5612C149.424 23.2598 148.126 23.0791 147.611 23.2034ZM171.114 23.3459C170.022 23.6942 169.046 24.7049 168.718 25.8282C168.276 27.3375 168.832 28.7947 170.19 29.6888C173.213 31.6799 177.09 28.6622 175.714 25.3889C174.993 23.6734 172.943 22.7629 171.114 23.3459ZM173.546 24.3503C174.948 25.0539 175.466 26.5805 174.767 27.9434C173.862 29.7071 171.833 30.0382 170.351 28.664C169.725 28.0837 169.636 27.8999 169.565 27.0545C169.449 25.6634 170.108 24.6035 171.357 24.1691C172.177 23.8845 172.705 23.9283 173.546 24.3503ZM170.863 24.77C170.799 24.8335 170.746 25.7711 170.746 26.8534C170.746 28.7053 170.767 28.8211 171.096 28.8211C171.398 28.8211 171.445 28.7053 171.445 27.953C171.445 26.7878 171.857 26.7889 172.625 27.9561C172.992 28.515 173.317 28.8211 173.541 28.8211C173.995 28.8211 173.981 28.6879 173.441 27.8976L172.992 27.241L173.441 26.8899C173.898 26.5322 174.049 25.6943 173.743 25.2153C173.469 24.7856 171.2 24.4347 170.863 24.77ZM172.924 25.5839C173.482 25.9897 173.14 26.3904 172.236 26.3904C171.473 26.3904 171.445 26.3716 171.445 25.8695C171.445 25.3957 171.497 25.3487 172.023 25.3487C172.34 25.3487 172.746 25.4546 172.924 25.5839ZM50.072 34.2011C43.5934 35.002 38.2892 39.409 36.4492 45.5198C36.1053 46.6626 36.0597 47.273 35.9982 51.5654L35.93 56.34L36.4206 57.2937C36.9666 58.3552 38.0257 59.26 39.0545 59.544C39.4743 59.66 44.0704 59.7237 52.0146 59.7237C59.9588 59.7237 64.555 59.66 64.9747 59.544C66.0019 59.2603 67.063 58.3551 67.5982 57.306L68.0783 56.3645V52.1347C68.0783 47.3508 67.9069 46.1002 66.9457 43.8707C66.0789 41.8605 65.3456 40.7364 63.8955 39.1953C62.4724 37.6829 60.6354 36.3569 58.8445 35.5494C56.3839 34.4402 52.7085 33.8752 50.072 34.2011ZM85.4516 34.2922C81.8547 34.866 79.1246 36.2474 76.5331 38.8043C74.6976 40.6152 73.8937 41.8076 72.9442 44.1275C71.9191 46.6323 71.9195 46.6254 71.9214 61.7584L71.9231 75.6119L72.3357 76.48C73.1052 78.0984 74.5391 78.9899 76.3721 78.9899C78.1089 78.9899 79.551 78.1452 80.3604 76.6537C80.7353 75.9627 80.7376 75.8896 80.8245 61.9827L80.9118 48.0062L81.4645 46.8464C82.2381 45.2225 83.2311 44.2166 84.826 43.4412C86.0973 42.8233 86.223 42.7976 87.9834 42.7976C89.6795 42.7976 89.904 42.8387 90.9831 43.3471C92.606 44.1115 93.6174 45.096 94.4027 46.6759L95.0549 47.9876L95.1422 61.9735C95.2382 77.3634 95.1554 76.2514 96.3073 77.6126C97.4424 78.954 99.7855 79.3908 101.525 78.5854C102.589 78.0926 103.583 76.9905 103.86 75.9953C104.009 75.459 104.048 71.4784 104.007 61.0278C103.952 46.8954 103.949 46.7817 103.564 45.5399C101.871 40.0702 97.6261 36.0303 92.1084 34.6386C89.9578 34.096 87.4864 33.9676 85.4516 34.2922ZM122.009 34.2011C115.067 35.0593 109.564 39.9976 108.149 46.64C107.966 47.4959 107.894 49.037 107.891 52.0986L107.888 56.3645L108.369 57.306C108.904 58.3551 109.965 59.2603 110.992 59.544C111.412 59.66 116.008 59.7237 123.952 59.7237C131.896 59.7237 136.492 59.66 136.912 59.544C137.941 59.26 139 58.3552 139.546 57.2937L140.037 56.34L139.968 51.5654C139.907 47.243 139.863 46.6676 139.509 45.4887C138.262 41.3334 135.103 37.64 131.176 35.7465C128.551 34.4808 124.826 33.8528 122.009 34.2011ZM19.224 43.4615C20.7967 44.2136 21.79 45.2201 22.5648 46.8464L23.1174 48.0062L23.1741 55.9928C23.2143 61.6627 23.1712 64.2563 23.025 64.9342C22.4312 67.6907 20.1393 69.817 17.2168 70.3229C13.5267 70.962 9.84022 68.5246 9.06672 64.9342C8.92057 64.2563 8.87744 61.6627 8.9176 55.9928L8.97435 48.0062L9.52697 46.8464C10.2285 45.3738 11.2275 44.2958 12.5304 43.6053C13.9211 42.8682 14.6492 42.7137 16.4157 42.7809C17.7177 42.8304 18.0964 42.9222 19.224 43.4615ZM55.0482 43.3948C55.6944 43.7014 56.5074 44.2004 56.8549 44.5036C58.3353 45.7948 59.2367 47.9803 59.1384 50.04L59.0861 51.1314H52.0146H44.9431L44.8909 50.04C44.7561 47.2168 46.2313 44.7265 48.7706 43.4912C50.1528 42.8188 50.6717 42.7165 52.3766 42.7807C53.6306 42.8281 54.064 42.9278 55.0482 43.3948ZM127.13 43.4615C129.536 44.6121 130.936 46.7356 131.08 49.4499C131.139 50.5666 131.1 50.9447 130.916 51.0611C130.783 51.1446 127.649 51.2128 123.952 51.2128C120.255 51.2128 117.121 51.1446 116.989 51.0611C116.804 50.9447 116.766 50.5666 116.825 49.4499C116.886 48.281 117.01 47.759 117.449 46.828C118.343 44.9274 120.19 43.3834 122.162 42.8882C122.522 42.7977 123.494 42.7495 124.322 42.7809C125.624 42.8304 126.003 42.9222 127.13 43.4615ZM163.122 43.4608C164.637 44.2056 165.752 45.3201 166.504 46.8443L166.992 47.8326V56.5136V65.1947L166.454 66.3237C165.464 68.4006 163.477 69.8956 161.147 70.3158C157.653 70.9459 154.124 68.8102 153.096 65.4431C152.763 64.3554 152.748 63.888 152.797 56.152L152.849 48.0062L153.407 46.8358C154.318 44.9224 156.165 43.3792 158.13 42.8896C158.491 42.7997 159.466 42.7464 160.298 42.7712C161.642 42.8113 161.956 42.888 163.122 43.4608ZM39.8781 63.8573C38.0685 64.4795 37.0106 65.7984 36.863 67.616C36.7714 68.7452 37.2487 70.0286 38.4289 71.8265C43.9557 80.245 56.3637 81.4802 63.5566 74.3277C64.8988 72.993 66.3256 70.9028 66.8624 69.4843C67.5772 67.596 66.9921 65.5673 65.4228 64.4919C62.9615 62.8053 60.1256 63.5524 58.5705 66.2968C57.2364 68.6515 55.5437 69.9147 53.1726 70.3252C50.0459 70.8667 47.0281 69.2572 45.3737 66.1663C44.6943 64.8971 43.8467 64.1941 42.5257 63.804C41.4136 63.4757 40.9617 63.4847 39.8781 63.8573ZM112.166 63.6982C111.277 63.9295 110.606 64.3547 109.857 65.1633C108.267 66.8788 108.411 68.8484 110.344 71.7919C112.656 75.3145 116.387 77.8157 120.633 78.6896C122.786 79.1326 126.134 79.0451 128.23 78.4909C130.019 78.0178 132.441 76.8308 133.969 75.6776C136.42 73.8275 138.909 70.2429 139.098 68.2909C139.217 67.0606 138.882 66.0637 138.048 65.1643C136.994 64.0271 136.168 63.6543 134.685 63.6474C133.085 63.6401 131.81 64.2919 131.024 65.5195C129.445 67.9837 129.037 68.5048 128.271 69.0296C126.876 69.9854 125.639 70.3691 123.952 70.3691C122.265 70.3691 121.029 69.9854 119.634 69.0296C118.865 68.5027 118.367 67.8653 116.881 65.5055C116.004 64.1144 113.806 63.2717 112.166 63.6982Z" fill="white"/>
</svg>
