<svg width="212" height="75" viewBox="0 0 212 75" fill="none" xmlns="http://www.w3.org/2000/svg">
<path fill-rule="evenodd" clip-rule="evenodd" d="M106.366 0.300811C93.2964 1.52416 82.2899 3.88897 71.993 7.68599C58.141 12.7938 47.0075 19.606 37.6434 28.7028L34.6662 31.595L34.1284 30.8437C32.9261 29.1639 29.4146 25.8424 27.522 24.595C23.6604 22.0499 18.9658 20.1236 14.6096 19.2972C11.4556 18.6989 7.17634 18.7467 4.40846 19.4116C2.34162 19.908 0.379572 20.6956 0.103489 21.1396C-0.132037 21.5187 1.64436 24.8595 3.1477 26.8647C4.63592 28.8496 7.04837 31.1237 9.29733 32.6621C10.6548 33.5905 15.1769 35.8734 16.1301 36.111C16.9946 36.3269 17.0082 36.6267 16.1631 36.8375C14.9457 37.1413 10.8553 39.2046 8.9215 40.4906C6.67027 41.9876 3.99484 44.5152 2.4784 46.5778C1.21966 48.2897 -0.167807 51.1173 0.0165834 51.5951C0.183089 52.0266 1.96931 52.857 3.86234 53.3832C6.1506 54.019 11.3871 54.1528 14.297 53.6496C22.4384 52.242 31.2456 47.0744 34.2752 41.9273C34.5788 41.4116 34.9317 40.9892 35.0594 40.9882C35.1874 40.9869 36.7176 42.3713 38.46 44.0639C42.1877 47.6854 44.8122 49.8962 48.8854 52.846C59.4798 60.5184 73.0615 66.8358 86.5923 70.3851C107.463 75.8598 131.218 76.4896 152.59 72.1349C167.593 69.0779 181.797 63.2581 193.641 55.316C198.143 52.2971 200.758 50.2395 205.432 46.0381C207.312 44.3479 211.792 39.5226 211.994 38.9697C212.177 38.4696 208.197 33.6511 204.864 30.3384C192.914 18.4592 177.118 9.75479 158.132 4.58542C151.962 2.90553 144.131 1.50613 135.335 0.511924C130.338 -0.0530462 111.605 -0.189531 106.366 0.300811ZM82.5549 11.5316C83.0514 11.6901 83.5673 12.0818 83.7476 12.4371C84.0804 13.0915 84.1809 15.8938 83.9081 16.9066C83.7577 17.4653 83.6794 17.4853 82.3372 17.3078C78.3905 16.7856 77.5547 17.5682 77.4549 21.8789L77.398 24.3326L81.1765 24.4578L84.955 24.583V26.504C84.955 28.2055 84.8829 28.5027 84.3252 29.1033C83.3332 30.1713 82.3219 30.4681 79.6731 30.4681H77.272V41.3618C77.272 54.4277 77.6302 53.2572 73.6313 53.2572C72.1695 53.2572 70.7128 53.128 70.3566 52.9665L69.715 52.676V41.5719V30.4681L68.3926 30.4386C67.6653 30.422 66.9734 30.426 66.855 30.4471C66.7368 30.4681 66.4285 30.4188 66.1703 30.3371C64.9632 29.9562 64.8375 25.1485 66.0154 24.4042C66.1799 24.3 67.0797 24.2134 68.0147 24.2111L69.715 24.2074L69.7168 22.7674C69.7196 20.4461 70.3637 16.8387 71.0078 15.5365C71.7723 13.9903 73.2462 12.5178 74.644 11.903C76.733 10.9844 80.3165 10.8161 82.5549 11.5316ZM94.3342 11.4462C95.0871 11.9215 95.664 13.4321 95.6466 14.8838C95.6121 17.751 94.5526 18.6979 91.3784 18.6979C88.0221 18.6979 86.9205 17.5479 87.1669 14.3018C87.3757 11.5526 88.3037 10.867 91.6303 11.0032C92.9014 11.0555 94.0002 11.2353 94.3342 11.4462ZM172.905 23.3464C175.521 23.8835 177.3 24.7816 179.025 26.4359C181.416 28.7296 182.486 31.59 182.741 36.3642C183.124 43.5578 180.424 49.0926 175.413 51.389C172.813 52.5803 171.047 52.8508 166.867 52.6978L163.296 52.5668L162.808 53.6006C162.526 54.1988 161.116 55.8134 159.462 57.4316C157.889 58.97 156.692 60.2725 156.8 60.3259C156.909 60.3795 158.529 60.4538 160.399 60.4914C162.269 60.5287 163.894 60.6494 164.008 60.7596C164.372 61.1082 164.498 62.9301 164.197 63.4888C163.913 64.0159 163.793 64.0257 157.544 64.0257C152.93 64.0257 151.096 63.9431 150.877 63.7252C150.71 63.5594 150.575 62.7625 150.575 61.9481V60.4716L153.692 57.3027C155.407 55.5597 157.012 53.7393 157.259 53.2572C157.875 52.0539 157.882 50.4454 157.274 49.7775C156.582 49.0167 154.639 49.0648 152.863 49.8869C151.196 50.6583 150.953 50.4932 150.953 48.59C150.953 47.3887 151.045 47.1247 151.644 46.6123C152.024 46.2873 152.959 45.8257 153.722 45.5866C154.485 45.3476 155.108 45.0316 155.106 44.8846C155.105 44.7376 154.941 44.0119 154.743 43.2718C154.178 41.1632 154.023 38.3153 154.333 35.78C154.834 31.6912 155.994 29.0301 158.231 26.8416C159.666 25.4372 160.514 24.902 163.026 23.8177C165.068 22.9354 169.804 22.7095 172.905 23.3464ZM114.689 24.3433C117.004 24.9389 118.306 25.6478 118.506 26.4214C118.845 27.7291 118.712 30.4473 118.289 30.8683C117.929 31.2259 117.818 31.2272 117.143 30.8803C114.403 29.4714 110.787 28.8423 108.931 29.4516C106.315 30.3098 106.339 33.3751 108.972 34.7029C109.479 34.9581 111.083 35.6462 112.538 36.2322C117.009 38.0326 119.129 39.8667 119.869 42.5746C120.283 44.0897 120.021 47.4235 119.392 48.6363C117.582 52.1305 113.828 54.002 108.634 54.0005C104.919 53.9995 100.635 52.7899 99.97 51.5543C99.5236 50.7249 99.3649 48.4492 99.6737 47.3095C99.9042 46.4598 100.076 46.2452 100.526 46.2452C100.837 46.2452 101.317 46.4032 101.595 46.5963C102.578 47.281 105.381 48.2697 106.979 48.4955C110.993 49.063 113.724 46.9965 112.455 44.3514C111.949 43.2949 111.43 42.9628 108.217 41.6393C104.578 40.1405 103.585 39.5998 102.29 38.4127C100.282 36.5728 99.5087 34.1159 99.9863 31.0942C100.5 27.8418 102.615 25.6754 106.492 24.4292C108.295 23.85 112.597 23.8049 114.689 24.3433ZM94.3221 25.0022L94.905 25.5469V39.0085C94.905 54.1182 95.0423 53.0934 92.9772 53.4012C91.5097 53.6201 88.141 53.3494 87.6888 52.9762C87.4102 52.7463 87.3518 50.4472 87.3692 40.3921C87.381 33.6253 87.4735 27.4264 87.575 26.6165C87.8254 24.6188 88.0974 24.4578 91.2215 24.4578C93.4596 24.4578 93.8037 24.5181 94.3221 25.0022ZM130.008 25.4387C130.68 25.5484 131.339 25.7953 131.471 25.9872C131.611 26.1898 131.679 28.384 131.634 31.2194L131.556 36.1028L135.72 36.1711L139.884 36.2395L139.956 31.1625C139.996 28.2686 140.133 25.9779 140.275 25.8351C140.64 25.4665 145.467 25.3593 146.594 25.6949L147.552 25.9804V39.6188C147.552 52.9234 147.54 53.2695 147.048 53.7581C146.606 54.1981 146.209 54.2589 143.785 54.2589C142.24 54.2589 140.746 54.132 140.39 53.9704L139.753 53.682L139.685 48.2043L139.617 42.7266L135.587 42.6971L131.556 42.6675L131.489 48.195L131.421 53.7223L130.518 54.0188C129.325 54.4102 124.836 54.2402 124.281 53.7824C123.915 53.4804 123.874 52.0727 123.877 39.8913C123.88 32.4357 123.978 26.184 124.097 25.9979C124.535 25.3107 127.505 25.0298 130.008 25.4387ZM167.176 28.7156C164.9 29.1035 163.871 29.9955 162.556 32.722C162.051 33.7685 161.857 34.6408 161.747 36.3532C161.455 40.907 162.576 44.6735 164.645 46.0917C167.112 47.7821 171.074 47.4217 173.029 45.3291C174.727 43.5117 175.376 41.025 175.2 37.0083C175.06 33.8329 174.601 32.2171 173.387 30.6354C172.179 29.0609 169.681 28.2889 167.176 28.7156Z" fill="white"/>
</svg>
