<svg width="246" height="111" viewBox="0 0 246 111" fill="none" xmlns="http://www.w3.org/2000/svg">
<path fill-rule="evenodd" clip-rule="evenodd" d="M27.409 0.242794C26.54 0.601096 25.7643 1.58776 24.3051 4.19002C19.827 12.1755 12.1217 19.8263 4.05093 24.3019C2.67597 25.0643 1.25421 26.0397 0.891158 26.4691C-1.15353 28.8884 0.545302 32.5748 3.7031 32.572C5.4228 32.5706 6.48292 31.7647 7.8359 29.4302C13.4415 19.7575 20.2918 12.9455 29.8179 7.57042C31.7405 6.4854 32.5819 5.50744 32.8128 4.08913C33.0157 2.84224 32.2248 1.19096 31.0959 0.504705C30.1979 -0.041319 28.4066 -0.168621 27.409 0.242794ZM41.1982 1.34749C39.9636 2.09838 38.8862 3.49702 37.3154 6.38873C34.7867 11.0444 30.8724 15.7762 23.3241 23.3017C15.7246 30.8783 10.985 34.7682 6.32789 37.2508C3.14105 38.9495 1.50254 40.4479 1.07071 42.0576C0.193527 45.3287 2.90879 48.2058 6.34818 47.6494C8.23784 47.3436 9.16097 46.2811 12.4135 40.6688C14.4038 37.2347 18.3142 32.5248 23.8856 26.8507C31.7868 18.8042 37.0191 14.4141 42.3482 11.36C43.8985 10.4714 45.5068 9.50413 45.922 9.21046C47.9278 7.79215 48.5178 4.64668 47.1298 2.77114C45.738 0.890266 43.0224 0.238578 41.1982 1.34749ZM16.5178 2.19336C16.1443 2.48619 15.1442 3.90422 14.2953 5.34445C12.2835 8.75689 9.04879 12.0502 6.03051 13.7579C2.67794 15.6551 1.89969 16.3945 1.89969 17.6833C1.89969 18.5406 2.07783 18.9026 2.79661 19.5057C4.28122 20.7512 5.86928 20.1205 7.04299 17.8195C9.33404 13.3283 13.0251 9.60473 17.6399 7.12866C20.3349 5.6828 20.9573 4.03742 19.3974 2.48225C18.443 1.53071 17.4852 1.4346 16.5178 2.19336ZM54.171 5.84411C52.6551 6.53064 51.3886 8.05856 49.5621 11.4044C42.6301 24.1015 24.0322 42.6208 11.3435 49.4611C6.75915 51.9324 4.93629 54.2913 5.4648 57.0678C6.16412 60.7408 10.2059 62.7725 13.468 61.0909C14.7113 60.4499 16.0973 58.6758 17.8869 55.4342C22.5769 46.9407 32.1199 36.0823 43.1938 26.6397C48.3388 22.2524 51.2395 20.1905 55.9713 17.5565C59.4346 15.629 60.7211 14.5619 61.4125 13.0447C63.4888 8.48824 58.746 3.77242 54.171 5.84411ZM59.5045 19.9044C58.3923 20.5806 57.5788 21.6695 55.8504 24.7962C53.1213 29.7332 48.3027 35.4758 40.4794 43.1148C33.4743 49.9546 29.1614 53.3862 24.0951 56.1514C22.8923 56.8076 21.4796 57.7479 20.9553 58.2408C18.5236 60.5272 19.1183 64.4682 22.0926 65.78C24.8722 67.0058 27.3495 65.6294 29.3971 61.7218C32.0379 56.6823 36.5938 51.0621 44.0281 43.6735C51.3743 36.3728 56.5954 32.1258 61.4962 29.4648C65.2623 27.4201 66.4482 26.0231 66.4482 23.6311C66.4482 22.3336 65.5775 20.9195 64.2152 20.0042C62.9893 19.1805 60.7724 19.1336 59.5045 19.9044ZM62.0527 34.7907C60.8558 35.3362 60.6619 35.5894 57.9424 40.1607C53.6963 47.299 46.0627 54.7027 38.9657 58.5668C35.519 60.4434 34.601 61.4481 34.5995 63.345C34.5976 66.1664 37.4882 67.9877 39.9517 66.7175C40.9405 66.2077 41.6926 65.2177 43.4743 62.0804C47.3229 55.3036 55.7872 46.8375 62.2201 43.3307C66.2878 41.1131 67.2907 40.0806 67.2926 38.1093C67.2955 35.3201 64.6152 33.6225 62.0527 34.7907ZM61.731 47.3344C61.3931 47.5704 60.3964 48.9929 59.5158 50.4958C57.459 54.0069 54.0219 57.4548 50.7894 59.2491C49.5573 59.9331 48.2706 60.7394 47.9298 61.0409C47.0811 61.7915 46.866 62.9757 47.3937 63.993C47.8827 64.9358 48.3388 65.1716 49.6749 65.1716C50.7784 65.1716 51.4791 64.4516 53.0037 61.7505C55.1395 57.9668 58.4041 54.7595 62.2813 52.6353C64.7555 51.2796 65.377 50.6012 65.377 49.2554C65.377 47.3689 63.2709 46.2592 61.731 47.3344ZM237.923 67.1503C235.757 67.5774 233.908 68.57 232.623 69.9956C231.006 71.788 230.383 73.6349 230.561 76.1087C230.794 79.35 232.243 81.4714 235.223 82.9336C237.012 83.8109 237.274 83.8595 240.217 83.8595C242.553 83.8595 243.654 83.7319 244.661 83.3444L246 82.8296V80.3234C246 78.9453 245.956 77.8176 245.903 77.8176C245.85 77.8176 245.057 78.0753 244.142 78.39C241.504 79.2971 239.576 79.3994 238.024 78.7146C234.911 77.3418 234.79 73.7026 237.811 72.3441C239.367 71.645 242.26 71.8641 244.406 72.8435L246 73.5711V70.9553V68.3393L244.802 67.8902C242.157 66.8988 240.242 66.6928 237.923 67.1503ZM70.444 68.6141C70.2731 69.4254 69.4952 72.9981 68.715 76.553C67.9347 80.1079 67.2957 83.1747 67.2949 83.3677C67.2941 83.6226 67.9838 83.719 69.8072 83.719H72.3207L72.6028 82.3842C72.7581 81.6499 73.2968 78.8995 73.7996 76.272C74.4908 72.6614 74.7679 71.6663 74.9342 72.1972C75.0551 72.5836 75.4824 75.176 75.8832 77.9581C76.2843 80.7402 76.6682 83.1747 76.7362 83.3677C76.8283 83.6302 78.0753 83.719 81.6692 83.719C85.2738 83.719 86.5047 83.6311 86.5819 83.3677C86.6389 83.1747 87.0259 80.7402 87.4425 77.9581C87.8588 75.176 88.2929 72.5883 88.4073 72.2075C88.5595 71.7006 88.86 72.7915 89.5297 76.2824C90.0326 78.9043 90.5732 81.6499 90.7308 82.3842L91.0177 83.719H93.6721C95.1319 83.719 96.3259 83.6243 96.3251 83.5083C96.3242 83.3922 95.8758 81.2109 95.3289 78.6606C94.1716 73.2659 92.944 67.3872 92.944 67.2405C92.944 67.1846 91.0022 67.1388 88.6292 67.1388H84.3143L83.2423 72.8294C82.6526 75.9592 82.0802 78.8315 81.9702 79.2123C81.7574 79.9486 81.6926 79.6692 80.1 71.1433L79.3519 67.1388H75.0528H70.754L70.444 68.6141ZM99.1452 75.4241V83.719H106.192H113.239V81.6114V79.5037H108.588H103.937V78.5201V77.5366H108.447H112.957V75.4289V73.3212H108.447H103.937V72.4852V71.6492L108.517 71.5719L113.098 71.4946V69.3869V67.2793L106.122 67.2042L99.1452 67.1289V75.4241ZM114.648 69.5275V71.9161H117.32H119.992L120.068 77.7473L120.145 83.5785L122.611 83.6597L125.077 83.7409V77.8285V71.9161H127.755H130.433V69.5275V67.1388H122.54H114.648V69.5275ZM135.227 67.7711C134.497 69.4951 129.305 83.2646 129.305 83.4757C129.305 83.6094 130.422 83.719 131.786 83.719H134.268L134.775 82.3139L135.281 80.9088H138.895H142.508L142.976 82.3139L143.444 83.719H146.099C147.56 83.719 148.754 83.6342 148.754 83.5302C148.754 83.4265 148.453 82.573 148.084 81.6333C147.715 80.6938 146.301 77.0481 144.94 73.532L142.466 67.1388H138.98C135.633 67.1388 135.484 67.1638 135.227 67.7711ZM158.902 68.1223V69.1059L156.576 69.1087C154.737 69.1107 153.956 69.2481 152.841 69.766C149.137 71.4859 148.231 76.8613 151.113 80.0227C152.257 81.2781 153.798 81.844 156.435 81.977L158.902 82.1017V82.9102V83.719H161.439H163.976V82.9102V82.1017L166.442 81.977C171.082 81.7429 173.365 79.5832 173.365 75.4289C173.365 73.4862 172.852 72.1128 171.702 70.9767C170.355 69.6463 169.363 69.281 166.653 69.118L164.116 68.9654L164.028 68.0521L163.94 67.1388H161.421H158.902V68.1223ZM175.814 75.4075V83.719H178.21H180.606V81.7519V79.7847H182.847C187.08 79.7847 189.236 78.8276 190.48 76.3964C191.633 74.1421 191.062 70.5237 189.301 68.928C187.634 67.4181 187.019 67.2852 181.24 67.1877L175.814 67.0958V75.4075ZM197.643 68.1181C197.417 68.6568 196.331 71.4707 195.23 74.3708C194.129 77.2713 192.925 80.4375 192.554 81.4071C192.184 82.3766 191.881 83.2933 191.881 83.4445C191.881 83.6024 192.934 83.719 194.362 83.719H196.843L197.35 82.3139L197.857 80.9088H201.427H204.996L205.497 82.3139L205.997 83.719H208.664C210.13 83.719 211.33 83.6752 211.33 83.6215C211.33 83.5296 210.236 80.648 207.634 73.8833C207.009 72.2604 206.176 70.0788 205.781 69.0357L205.063 67.1388H201.558H198.053L197.643 68.1181ZM213.303 75.4289V83.7409L215.769 83.6597L218.236 83.5785L218.311 80.9088C218.447 76.1126 218.139 76.1846 221.427 80.1821L224.337 83.719H227.417C229.111 83.719 230.497 83.6429 230.497 83.5496C230.497 83.4563 228.988 81.52 227.144 79.2468L223.79 75.1139L224.8 73.8664C225.356 73.1802 226.738 71.5157 227.872 70.1673C229.006 68.819 229.933 67.5862 229.933 67.4274C229.933 67.2495 228.871 67.1388 227.166 67.1388H224.398L221.461 70.7721C219.846 72.7701 218.483 74.3638 218.432 74.3135C218.382 74.2632 218.317 72.66 218.288 70.7507L218.236 67.2793L215.769 67.1981L213.303 67.1169V75.4289ZM140.001 73.9311C140.475 75.271 140.862 76.4409 140.862 76.5305C140.862 76.6201 139.974 76.6935 138.889 76.6935C137.804 76.6935 136.915 76.5988 136.914 76.4827C136.91 75.8901 138.772 71.1251 138.941 71.2956C139.05 71.405 139.527 72.5909 140.001 73.9311ZM202.45 73.7428C202.888 74.9793 203.302 76.1492 203.372 76.3422C203.465 76.6022 202.976 76.6935 201.495 76.6935C200.393 76.6935 199.49 76.5988 199.487 76.4827C199.477 75.9297 201.326 71.1079 201.48 71.2883C201.576 71.4019 202.013 72.5063 202.45 73.7428ZM185.398 72.1972C185.708 72.5063 185.961 73.0753 185.961 73.4617C185.961 74.7896 185.076 75.2884 182.72 75.2884H180.606V73.4617V71.6351H182.72C184.458 71.6351 184.934 71.7352 185.398 72.1972ZM158.902 75.4289V77.5366H157.516C155.718 77.5366 155.306 77.3601 154.793 76.3703C153.967 74.7772 155.347 73.3336 157.704 73.3255L158.902 73.3212V75.4289ZM167.636 74.0199C168.412 74.7207 168.387 76.22 167.587 76.9636C167.126 77.391 166.59 77.5366 165.473 77.5366H163.976V75.3941V73.2515L165.522 73.3794C166.473 73.4581 167.286 73.7043 167.636 74.0199ZM68.269 94.4667C68.1926 94.6645 68.1642 98.4291 68.2053 102.832L68.2803 110.838H70.6762H73.0721L73.1482 104.866L73.2243 98.8942H77.599H81.9739L81.8919 96.5757L81.8101 94.2573L75.1089 94.182C69.8661 94.123 68.3773 94.1848 68.269 94.4667ZM83.6423 102.528V111L86.1087 110.919L88.575 110.838V108.87V106.903L91.6756 106.763C95.4403 106.592 96.8172 105.98 98.1034 103.904C99.59 101.506 99.132 97.7529 97.1253 95.8867C95.6683 94.5319 94.549 94.2978 88.9274 94.1733L83.6423 94.0561V102.528ZM99.4285 94.458C99.4293 94.6566 100.095 95.831 100.908 97.0675C104.062 101.864 105.91 104.841 105.91 105.127C105.91 105.454 104.139 108.475 103.323 109.541C102.324 110.844 102.57 111.006 105.413 110.919L108.016 110.838L111.893 104.655C114.025 101.255 116.334 97.5944 117.024 96.5209C117.713 95.4474 118.215 94.4672 118.137 94.343C117.962 94.0603 113.486 94.0505 113.087 94.3318C112.927 94.4453 111.975 95.8347 110.974 97.4188C109.972 99.0029 109.089 100.297 109.011 100.294C108.933 100.291 107.982 98.9321 106.897 97.2732L104.924 94.2573L102.175 94.1769C100.081 94.1157 99.4274 94.1826 99.4285 94.458ZM119.287 94.4672C119.211 94.6648 119.183 98.4291 119.224 102.832L119.299 110.838H121.695H124.091L124.167 104.866L124.243 98.8942H127.332H130.422L130.498 104.866L130.574 110.838H132.97H135.366L135.309 102.547L135.252 94.2573L127.339 94.1826C121.12 94.1241 119.396 94.1848 119.287 94.4672ZM139.189 94.5161C138.937 94.8191 138.873 96.9734 138.94 102.881L139.03 110.838H141.426H143.822L143.898 104.866L143.974 98.8942H147.063H150.153L150.229 104.866L150.305 110.838H152.701H155.097V102.547V94.2573L147.313 94.1826C140.787 94.1202 139.474 94.1741 139.189 94.5161ZM92.9581 99.042C94.0605 99.6102 94.182 100.838 93.2321 101.809C92.5562 102.501 89.0708 102.825 88.679 102.232C88.4338 101.861 88.4014 99.2629 88.6365 98.8239C88.8431 98.4378 92.1055 98.6022 92.9581 99.042Z" fill="white"/>
</svg>
